<svg id="Layer_1" data-name="Layer 1" xmlns="http://www.w3.org/2000/svg" viewBox="0 0 94.52 29.5"><defs></defs><title>Project58-agency-white</title><path class="cls-1" d="M7.82,21.6V8.54h.89v2A3.62,3.62,0,0,1,10,8.83a3.35,3.35,0,0,1,2-.63A3.74,3.74,0,0,1,15,9.59a5.63,5.63,0,0,1,1.16,3.7A5.35,5.35,0,0,1,15,16.85a3.58,3.58,0,0,1-2.94,1.34,3.54,3.54,0,0,1-2-.6A3.74,3.74,0,0,1,8.71,16V21.6Zm6.56-5.24a5.19,5.19,0,0,0,.89-3.16,5,5,0,0,0-.89-3.12A2.76,2.76,0,0,0,12,8.89,2.83,2.83,0,0,0,9.7,10.17a4.72,4.72,0,0,0-1,3,4.83,4.83,0,0,0,1,3.07A2.82,2.82,0,0,0,12,17.54,2.75,2.75,0,0,0,14.38,16.36Z"></path><path class="cls-1" d="M19.31,18V8.54h.89v2.14A4.07,4.07,0,0,1,21.32,9a2.46,2.46,0,0,1,1.6-.63h.52v1a.37.37,0,0,1-.16-.05.16.16,0,0,0-.09,0,2.56,2.56,0,0,0-1.89.89,4.35,4.35,0,0,0-1.1,2.25V18Z"></path><path class="cls-1" d="M26.5,16.85a5,5,0,0,1-1.22-3.56,5.4,5.4,0,0,1,1.22-3.7A4,4,0,0,1,29.73,8.2,4.11,4.11,0,0,1,33,9.59a5.49,5.49,0,0,1,1.2,3.7A5.13,5.13,0,0,1,33,16.85a4.2,4.2,0,0,1-3.24,1.34A4.14,4.14,0,0,1,26.5,16.85Zm5.82-.53a4.55,4.55,0,0,0,1-3,4.73,4.73,0,0,0-1-3.12A3.21,3.21,0,0,0,29.73,9a3.15,3.15,0,0,0-2.58,1.19,4.63,4.63,0,0,0-1,3.12,4.45,4.45,0,0,0,1,3,3.2,3.2,0,0,0,2.58,1.14A3.26,3.26,0,0,0,32.32,16.32Z"></path><path class="cls-1" d="M35.87,20.93h1a1.18,1.18,0,0,0,1-.51,2.38,2.38,0,0,0,.35-1.36V8.54h.9V19.06a2.68,2.68,0,0,1-.61,1.85,2.08,2.08,0,0,1-1.62.69h-1ZM38.21,4.82h.9V6.18h-.9Z"></path><path class="cls-1" d="M42.5,17a5.65,5.65,0,0,1-1.16-3.7,5.63,5.63,0,0,1,1.16-3.7A3.81,3.81,0,0,1,45.58,8.2a4,4,0,0,1,3.08,1.27,4.86,4.86,0,0,1,1.16,3.39v.43H42.24a4.89,4.89,0,0,0,.91,3.1,2.94,2.94,0,0,0,2.43,1.15,3.65,3.65,0,0,0,2.05-.6,3.14,3.14,0,0,0,1.29-1.62h.9a3.35,3.35,0,0,1-1.43,2.18,4.67,4.67,0,0,1-2.81.87A3.83,3.83,0,0,1,42.5,17Zm6.42-4.55v-.33a3.35,3.35,0,0,0-1.07-2.23A3.25,3.25,0,0,0,45.58,9a3.16,3.16,0,0,0-2.25.92,3.41,3.41,0,0,0-1.09,2.29v.25Z"></path><path class="cls-1" d="M53.46,16.94a5.37,5.37,0,0,1-1.32-3.65A5.22,5.22,0,0,1,53.46,9.7a4.1,4.1,0,0,1,3.19-1.5,4,4,0,0,1,2.63.92,2.84,2.84,0,0,1,1.09,2.23h-.89a2,2,0,0,0-.83-1.61,3.1,3.1,0,0,0-2-.67,3.3,3.3,0,0,0-2.57,1.23,4.48,4.48,0,0,0-1,3,4.62,4.62,0,0,0,1,3.05,3.25,3.25,0,0,0,2.57,1.27,2.91,2.91,0,0,0,2-.69,2.08,2.08,0,0,0,.82-1.65h.94a2.85,2.85,0,0,1-1.09,2.25,3.89,3.89,0,0,1-2.63.94A4.09,4.09,0,0,1,53.46,16.94Z"></path><path class="cls-1" d="M63.79,17.77a2.09,2.09,0,0,1-.51-1.43V9.23H61.92V8.54h1.36V5.84h.89v2.7h1.29v.69H64.17v7.11a1.63,1.63,0,0,0,.29,1,.78.78,0,0,0,.67.4,1.31,1.31,0,0,0,.69-.16v.65a2.42,2.42,0,0,1-.76.18A1.65,1.65,0,0,1,63.79,17.77Z"></path><path class="cls-1" d="M67.64,20.66h1.52a2.22,2.22,0,0,0,1,1.87,3.73,3.73,0,0,0,2.23.67,3.43,3.43,0,0,0,2.36-.87,2.76,2.76,0,0,0,1-2.18,3,3,0,0,0-1-2.3,3.41,3.41,0,0,0-2.39-.94,4.4,4.4,0,0,0-1.69.34,3.73,3.73,0,0,0-1.36,1H67.8l1.36-7h7.11v1.52H70.52l-.67,3.48a2.2,2.2,0,0,1,1.14-.7,5.5,5.5,0,0,1,1.4-.15,4.85,4.85,0,0,1,3.46,1.38,4.48,4.48,0,0,1,1.44,3.37,4.22,4.22,0,0,1-1.47,3.25,4.86,4.86,0,0,1-3.43,1.32,5.05,5.05,0,0,1-3.3-1.12A3.64,3.64,0,0,1,67.64,20.66Z"></path><path class="cls-1" d="M77.46,15a3.4,3.4,0,0,1,.63-2,3.37,3.37,0,0,1,1.64-1.29,2.84,2.84,0,0,1-1.42-1.09,3,3,0,0,1-.53-1.72,3.09,3.09,0,0,1,1.35-2.59,5.33,5.33,0,0,1,6.1,0,3.09,3.09,0,0,1,1.35,2.59A2.81,2.81,0,0,1,86,10.65a3.12,3.12,0,0,1-1.46,1.09A3.69,3.69,0,0,1,86.25,13a3.34,3.34,0,0,1,.64,2,3.81,3.81,0,0,1-1.42,3,5.18,5.18,0,0,1-6.58,0A3.82,3.82,0,0,1,77.46,15ZM79,15a2.41,2.41,0,0,0,1,2,3.52,3.52,0,0,0,2.23.74A3.43,3.43,0,0,0,84.4,17a2.41,2.41,0,0,0,1-2,2.2,2.2,0,0,0-1-1.85,3.93,3.93,0,0,0-4.42,0A2.24,2.24,0,0,0,79,15Zm.31-6.1a1.73,1.73,0,0,0,.92,1.53,3.69,3.69,0,0,0,2,.51,3.57,3.57,0,0,0,2-.51,1.72,1.72,0,0,0,0-3.05,3.58,3.58,0,0,0-2-.52,3.7,3.7,0,0,0-2,.52A1.71,1.71,0,0,0,79.29,8.93Z"></path></svg>